ISO-10303-21;
HEADER;
/* Generated by software containing ST-Developer
 * from STEP Tools, Inc. (www.steptools.com) 
 */

FILE_DESCRIPTION(
/* description */ (''),
/* implementation_level */ '2;1');

FILE_NAME(
/* name */ 'D:\\My Projects\\Models\\! Electronics\\LEDs\\LED5mmBlue.s
tp',
/* time_stamp */ '2018-09-24T22:56:31+03:00',
/* author */ ('User'),
/* organization */ (''),
/* preprocessor_version */ 'ST-DEVELOPER v17',
/* originating_system */ 'Autodesk Inventor 2018',
/* authorisation */ '');

FILE_SCHEMA (('AUTOMOTIVE_DESIGN { 1 0 10303 214 3 1 1 }'));
ENDSEC;

DATA;
#10=MECHANICAL_DESIGN_GEOMETRIC_PRESENTATION_REPRESENTATION('',(#13,#14,
#15,#16,#17,#18,#19,#20,#21,#22,#23,#24,#25,#26,#27,#28,#29),#1034);
#11=SHAPE_REPRESENTATION_RELATIONSHIP('SRR','None',#1041,#12);
#12=ADVANCED_BREP_SHAPE_REPRESENTATION('',(#30,#31,#32),#1033);
#13=STYLED_ITEM('',(#1051),#30);
#14=STYLED_ITEM('',(#1052),#608);
#15=STYLED_ITEM('',(#1052),#609);
#16=STYLED_ITEM('',(#1052),#610);
#17=STYLED_ITEM('',(#1052),#611);
#18=STYLED_ITEM('',(#1052),#612);
#19=STYLED_ITEM('',(#1052),#613);
#20=STYLED_ITEM('',(#1052),#614);
#21=STYLED_ITEM('',(#1052),#615);
#22=STYLED_ITEM('',(#1052),#616);
#23=STYLED_ITEM('',(#1052),#617);
#24=STYLED_ITEM('',(#1052),#618);
#25=STYLED_ITEM('',(#1052),#619);
#26=STYLED_ITEM('',(#1052),#620);
#27=STYLED_ITEM('',(#1052),#621);
#28=STYLED_ITEM('',(#1052),#31);
#29=STYLED_ITEM('',(#1052),#32);
#30=MANIFOLD_SOLID_BREP('Body',#636);
#31=MANIFOLD_SOLID_BREP('Cathode',#637);
#32=MANIFOLD_SOLID_BREP('Anode',#638);
#33=FACE_BOUND('',#260,.T.);
#34=PLANE('',#667);
#35=PLANE('',#668);
#36=PLANE('',#669);
#37=PLANE('',#670);
#38=PLANE('',#671);
#39=PLANE('',#672);
#40=PLANE('',#673);
#41=PLANE('',#674);
#42=PLANE('',#675);
#43=PLANE('',#676);
#44=PLANE('',#677);
#45=PLANE('',#678);
#46=PLANE('',#679);
#47=PLANE('',#680);
#48=PLANE('',#681);
#49=PLANE('',#682);
#50=PLANE('',#683);
#51=PLANE('',#684);
#52=PLANE('',#685);
#53=PLANE('',#686);
#54=PLANE('',#687);
#55=PLANE('',#688);
#56=PLANE('',#689);
#57=PLANE('',#690);
#58=PLANE('',#691);
#59=PLANE('',#692);
#60=PLANE('',#693);
#61=PLANE('',#694);
#62=PLANE('',#695);
#63=PLANE('',#696);
#64=PLANE('',#697);
#65=LINE('',#867,#142);
#66=LINE('',#874,#143);
#67=LINE('',#877,#144);
#68=LINE('',#879,#145);
#69=LINE('',#880,#146);
#70=LINE('',#886,#147);
#71=LINE('',#888,#148);
#72=LINE('',#890,#149);
#73=LINE('',#891,#150);
#74=LINE('',#895,#151);
#75=LINE('',#897,#152);
#76=LINE('',#899,#153);
#77=LINE('',#900,#154);
#78=LINE('',#904,#155);
#79=LINE('',#906,#156);
#80=LINE('',#908,#157);
#81=LINE('',#909,#158);
#82=LINE('',#913,#159);
#83=LINE('',#914,#160);
#84=LINE('',#916,#161);
#85=LINE('',#918,#162);
#86=LINE('',#919,#163);
#87=LINE('',#920,#164);
#88=LINE('',#922,#165);
#89=LINE('',#924,#166);
#90=LINE('',#925,#167);
#91=LINE('',#928,#168);
#92=LINE('',#930,#169);
#93=LINE('',#931,#170);
#94=LINE('',#933,#171);
#95=LINE('',#935,#172);
#96=LINE('',#938,#173);
#97=LINE('',#940,#174);
#98=LINE('',#941,#175);
#99=LINE('',#943,#176);
#100=LINE('',#945,#177);
#101=LINE('',#946,#178);
#102=LINE('',#948,#179);
#103=LINE('',#950,#180);
#104=LINE('',#952,#181);
#105=LINE('',#954,#182);
#106=LINE('',#960,#183);
#107=LINE('',#962,#184);
#108=LINE('',#964,#185);
#109=LINE('',#965,#186);
#110=LINE('',#969,#187);
#111=LINE('',#971,#188);
#112=LINE('',#973,#189);
#113=LINE('',#974,#190);
#114=LINE('',#978,#191);
#115=LINE('',#980,#192);
#116=LINE('',#982,#193);
#117=LINE('',#983,#194);
#118=LINE('',#987,#195);
#119=LINE('',#988,#196);
#120=LINE('',#990,#197);
#121=LINE('',#992,#198);
#122=LINE('',#993,#199);
#123=LINE('',#994,#200);
#124=LINE('',#996,#201);
#125=LINE('',#998,#202);
#126=LINE('',#999,#203);
#127=LINE('',#1002,#204);
#128=LINE('',#1004,#205);
#129=LINE('',#1005,#206);
#130=LINE('',#1007,#207);
#131=LINE('',#1009,#208);
#132=LINE('',#1012,#209);
#133=LINE('',#1014,#210);
#134=LINE('',#1015,#211);
#135=LINE('',#1017,#212);
#136=LINE('',#1019,#213);
#137=LINE('',#1020,#214);
#138=LINE('',#1022,#215);
#139=LINE('',#1024,#216);
#140=LINE('',#1026,#217);
#141=LINE('',#1028,#218);
#142=VECTOR('',#710,2.5);
#143=VECTOR('',#717,10.);
#144=VECTOR('',#720,10.);
#145=VECTOR('',#723,10.);
#146=VECTOR('',#724,10.);
#147=VECTOR('',#731,10.);
#148=VECTOR('',#732,10.);
#149=VECTOR('',#733,10.);
#150=VECTOR('',#734,10.);
#151=VECTOR('',#737,10.);
#152=VECTOR('',#738,10.);
#153=VECTOR('',#739,10.);
#154=VECTOR('',#740,10.);
#155=VECTOR('',#743,10.);
#156=VECTOR('',#744,10.);
#157=VECTOR('',#745,10.);
#158=VECTOR('',#746,10.);
#159=VECTOR('',#749,10.);
#160=VECTOR('',#750,10.);
#161=VECTOR('',#751,10.);
#162=VECTOR('',#752,10.);
#163=VECTOR('',#753,10.);
#164=VECTOR('',#754,10.);
#165=VECTOR('',#755,10.);
#166=VECTOR('',#756,10.);
#167=VECTOR('',#757,10.);
#168=VECTOR('',#760,10.);
#169=VECTOR('',#761,10.);
#170=VECTOR('',#762,10.);
#171=VECTOR('',#765,10.);
#172=VECTOR('',#768,10.);
#173=VECTOR('',#771,10.);
#174=VECTOR('',#772,10.);
#175=VECTOR('',#773,10.);
#176=VECTOR('',#774,10.);
#177=VECTOR('',#775,10.);
#178=VECTOR('',#776,10.);
#179=VECTOR('',#779,10.);
#180=VECTOR('',#782,10.);
#181=VECTOR('',#785,10.);
#182=VECTOR('',#788,10.);
#183=VECTOR('',#795,10.);
#184=VECTOR('',#796,10.);
#185=VECTOR('',#797,10.);
#186=VECTOR('',#798,10.);
#187=VECTOR('',#801,10.);
#188=VECTOR('',#802,10.);
#189=VECTOR('',#803,10.);
#190=VECTOR('',#804,10.);
#191=VECTOR('',#807,10.);
#192=VECTOR('',#808,10.);
#193=VECTOR('',#809,10.);
#194=VECTOR('',#810,10.);
#195=VECTOR('',#813,10.);
#196=VECTOR('',#814,10.);
#197=VECTOR('',#815,10.);
#198=VECTOR('',#816,10.);
#199=VECTOR('',#817,10.);
#200=VECTOR('',#818,10.);
#201=VECTOR('',#819,10.);
#202=VECTOR('',#820,10.);
#203=VECTOR('',#821,10.);
#204=VECTOR('',#824,10.);
#205=VECTOR('',#825,10.);
#206=VECTOR('',#826,10.);
#207=VECTOR('',#829,10.);
#208=VECTOR('',#832,10.);
#209=VECTOR('',#835,10.);
#210=VECTOR('',#836,10.);
#211=VECTOR('',#837,10.);
#212=VECTOR('',#838,10.);
#213=VECTOR('',#839,10.);
#214=VECTOR('',#840,10.);
#215=VECTOR('',#843,10.);
#216=VECTOR('',#846,10.);
#217=VECTOR('',#849,10.);
#218=VECTOR('',#852,10.);
#219=CYLINDRICAL_SURFACE('',#662,2.5);
#220=CYLINDRICAL_SURFACE('',#664,2.95);
#221=FACE_OUTER_BOUND('',#255,.T.);
#222=FACE_OUTER_BOUND('',#256,.T.);
#223=FACE_OUTER_BOUND('',#257,.T.);
#224=FACE_OUTER_BOUND('',#258,.T.);
#225=FACE_OUTER_BOUND('',#259,.T.);
#226=FACE_OUTER_BOUND('',#261,.T.);
#227=FACE_OUTER_BOUND('',#262,.T.);
#228=FACE_OUTER_BOUND('',#263,.T.);
#229=FACE_OUTER_BOUND('',#264,.T.);
#230=FACE_OUTER_BOUND('',#265,.T.);
#231=FACE_OUTER_BOUND('',#266,.T.);
#232=FACE_OUTER_BOUND('',#267,.T.);
#233=FACE_OUTER_BOUND('',#268,.T.);
#234=FACE_OUTER_BOUND('',#269,.T.);
#235=FACE_OUTER_BOUND('',#270,.T.);
#236=FACE_OUTER_BOUND('',#271,.T.);
#237=FACE_OUTER_BOUND('',#272,.T.);
#238=FACE_OUTER_BOUND('',#273,.T.);
#239=FACE_OUTER_BOUND('',#274,.T.);
#240=FACE_OUTER_BOUND('',#275,.T.);
#241=FACE_OUTER_BOUND('',#276,.T.);
#242=FACE_OUTER_BOUND('',#277,.T.);
#243=FACE_OUTER_BOUND('',#278,.T.);
#244=FACE_OUTER_BOUND('',#279,.T.);
#245=FACE_OUTER_BOUND('',#280,.T.);
#246=FACE_OUTER_BOUND('',#281,.T.);
#247=FACE_OUTER_BOUND('',#282,.T.);
#248=FACE_OUTER_BOUND('',#283,.T.);
#249=FACE_OUTER_BOUND('',#284,.T.);
#250=FACE_OUTER_BOUND('',#285,.T.);
#251=FACE_OUTER_BOUND('',#286,.T.);
#252=FACE_OUTER_BOUND('',#287,.T.);
#253=FACE_OUTER_BOUND('',#288,.T.);
#254=FACE_OUTER_BOUND('',#289,.T.);
#255=EDGE_LOOP('',(#435,#436,#437,#438));
#256=EDGE_LOOP('',(#439,#440,#441,#442,#443));
#257=EDGE_LOOP('',(#444,#445,#446,#447));
#258=EDGE_LOOP('',(#448,#449,#450,#451));
#259=EDGE_LOOP('',(#452,#453));
#260=EDGE_LOOP('',(#454));
#261=EDGE_LOOP('',(#455,#456));
#262=EDGE_LOOP('',(#457,#458,#459,#460));
#263=EDGE_LOOP('',(#461,#462,#463,#464));
#264=EDGE_LOOP('',(#465,#466,#467,#468));
#265=EDGE_LOOP('',(#469,#470,#471,#472,#473,#474,#475,#476,#477,#478,#479,
#480));
#266=EDGE_LOOP('',(#481,#482,#483,#484));
#267=EDGE_LOOP('',(#485,#486,#487,#488));
#268=EDGE_LOOP('',(#489,#490,#491,#492));
#269=EDGE_LOOP('',(#493,#494,#495,#496,#497,#498,#499,#500,#501,#502,#503,
#504));
#270=EDGE_LOOP('',(#505,#506,#507,#508));
#271=EDGE_LOOP('',(#509,#510,#511,#512));
#272=EDGE_LOOP('',(#513,#514,#515,#516));
#273=EDGE_LOOP('',(#517,#518,#519,#520));
#274=EDGE_LOOP('',(#521,#522,#523,#524));
#275=EDGE_LOOP('',(#525,#526,#527,#528));
#276=EDGE_LOOP('',(#529,#530,#531,#532));
#277=EDGE_LOOP('',(#533,#534,#535,#536));
#278=EDGE_LOOP('',(#537,#538,#539,#540));
#279=EDGE_LOOP('',(#541,#542,#543,#544,#545,#546,#547,#548,#549,#550,#551,
#552));
#280=EDGE_LOOP('',(#553,#554,#555,#556));
#281=EDGE_LOOP('',(#557,#558,#559,#560));
#282=EDGE_LOOP('',(#561,#562,#563,#564));
#283=EDGE_LOOP('',(#565,#566,#567,#568,#569,#570,#571,#572,#573,#574,#575,
#576));
#284=EDGE_LOOP('',(#577,#578,#579,#580));
#285=EDGE_LOOP('',(#581,#582,#583,#584));
#286=EDGE_LOOP('',(#585,#586,#587,#588));
#287=EDGE_LOOP('',(#589,#590,#591,#592));
#288=EDGE_LOOP('',(#593,#594,#595,#596));
#289=EDGE_LOOP('',(#597,#598,#599,#600));
#290=CIRCLE('',#659,2.5);
#291=CIRCLE('',#660,2.5);
#292=CIRCLE('',#661,2.5);
#293=CIRCLE('',#663,2.5);
#294=CIRCLE('',#665,2.95);
#295=CIRCLE('',#666,2.95);
#296=VERTEX_POINT('',#859);
#297=VERTEX_POINT('',#860);
#298=VERTEX_POINT('',#862);
#299=VERTEX_POINT('',#866);
#300=VERTEX_POINT('',#870);
#301=VERTEX_POINT('',#871);
#302=VERTEX_POINT('',#873);
#303=VERTEX_POINT('',#875);
#304=VERTEX_POINT('',#884);
#305=VERTEX_POINT('',#885);
#306=VERTEX_POINT('',#887);
#307=VERTEX_POINT('',#889);
#308=VERTEX_POINT('',#893);
#309=VERTEX_POINT('',#894);
#310=VERTEX_POINT('',#896);
#311=VERTEX_POINT('',#898);
#312=VERTEX_POINT('',#902);
#313=VERTEX_POINT('',#903);
#314=VERTEX_POINT('',#905);
#315=VERTEX_POINT('',#907);
#316=VERTEX_POINT('',#911);
#317=VERTEX_POINT('',#912);
#318=VERTEX_POINT('',#915);
#319=VERTEX_POINT('',#917);
#320=VERTEX_POINT('',#921);
#321=VERTEX_POINT('',#923);
#322=VERTEX_POINT('',#927);
#323=VERTEX_POINT('',#929);
#324=VERTEX_POINT('',#937);
#325=VERTEX_POINT('',#939);
#326=VERTEX_POINT('',#942);
#327=VERTEX_POINT('',#944);
#328=VERTEX_POINT('',#958);
#329=VERTEX_POINT('',#959);
#330=VERTEX_POINT('',#961);
#331=VERTEX_POINT('',#963);
#332=VERTEX_POINT('',#967);
#333=VERTEX_POINT('',#968);
#334=VERTEX_POINT('',#970);
#335=VERTEX_POINT('',#972);
#336=VERTEX_POINT('',#976);
#337=VERTEX_POINT('',#977);
#338=VERTEX_POINT('',#979);
#339=VERTEX_POINT('',#981);
#340=VERTEX_POINT('',#985);
#341=VERTEX_POINT('',#986);
#342=VERTEX_POINT('',#989);
#343=VERTEX_POINT('',#991);
#344=VERTEX_POINT('',#995);
#345=VERTEX_POINT('',#997);
#346=VERTEX_POINT('',#1001);
#347=VERTEX_POINT('',#1003);
#348=VERTEX_POINT('',#1011);
#349=VERTEX_POINT('',#1013);
#350=VERTEX_POINT('',#1016);
#351=VERTEX_POINT('',#1018);
#352=EDGE_CURVE('',#296,#297,#290,.T.);
#353=EDGE_CURVE('',#298,#297,#291,.T.);
#354=EDGE_CURVE('',#297,#296,#292,.T.);
#355=EDGE_CURVE('',#296,#299,#65,.T.);
#356=EDGE_CURVE('',#299,#299,#293,.T.);
#357=EDGE_CURVE('',#300,#301,#294,.T.);
#358=EDGE_CURVE('',#300,#302,#66,.T.);
#359=EDGE_CURVE('',#303,#302,#295,.T.);
#360=EDGE_CURVE('',#301,#303,#67,.T.);
#361=EDGE_CURVE('',#301,#300,#68,.T.);
#362=EDGE_CURVE('',#302,#303,#69,.T.);
#363=EDGE_CURVE('',#304,#305,#70,.T.);
#364=EDGE_CURVE('',#306,#304,#71,.T.);
#365=EDGE_CURVE('',#307,#306,#72,.T.);
#366=EDGE_CURVE('',#305,#307,#73,.T.);
#367=EDGE_CURVE('',#308,#309,#74,.T.);
#368=EDGE_CURVE('',#310,#308,#75,.T.);
#369=EDGE_CURVE('',#311,#310,#76,.T.);
#370=EDGE_CURVE('',#309,#311,#77,.T.);
#371=EDGE_CURVE('',#312,#313,#78,.T.);
#372=EDGE_CURVE('',#314,#312,#79,.T.);
#373=EDGE_CURVE('',#315,#314,#80,.T.);
#374=EDGE_CURVE('',#313,#315,#81,.T.);
#375=EDGE_CURVE('',#316,#317,#82,.T.);
#376=EDGE_CURVE('',#317,#314,#83,.T.);
#377=EDGE_CURVE('',#312,#318,#84,.T.);
#378=EDGE_CURVE('',#318,#319,#85,.T.);
#379=EDGE_CURVE('',#319,#309,#86,.T.);
#380=EDGE_CURVE('',#311,#306,#87,.T.);
#381=EDGE_CURVE('',#304,#320,#88,.T.);
#382=EDGE_CURVE('',#320,#321,#89,.T.);
#383=EDGE_CURVE('',#321,#316,#90,.T.);
#384=EDGE_CURVE('',#322,#316,#91,.T.);
#385=EDGE_CURVE('',#323,#322,#92,.T.);
#386=EDGE_CURVE('',#323,#317,#93,.T.);
#387=EDGE_CURVE('',#315,#323,#94,.T.);
#388=EDGE_CURVE('',#307,#310,#95,.T.);
#389=EDGE_CURVE('',#322,#324,#96,.T.);
#390=EDGE_CURVE('',#324,#325,#97,.T.);
#391=EDGE_CURVE('',#325,#305,#98,.T.);
#392=EDGE_CURVE('',#308,#326,#99,.T.);
#393=EDGE_CURVE('',#326,#327,#100,.T.);
#394=EDGE_CURVE('',#327,#313,#101,.T.);
#395=EDGE_CURVE('',#324,#321,#102,.T.);
#396=EDGE_CURVE('',#319,#326,#103,.T.);
#397=EDGE_CURVE('',#325,#320,#104,.T.);
#398=EDGE_CURVE('',#327,#318,#105,.T.);
#399=EDGE_CURVE('',#328,#329,#106,.T.);
#400=EDGE_CURVE('',#330,#328,#107,.T.);
#401=EDGE_CURVE('',#331,#330,#108,.T.);
#402=EDGE_CURVE('',#329,#331,#109,.T.);
#403=EDGE_CURVE('',#332,#333,#110,.T.);
#404=EDGE_CURVE('',#334,#332,#111,.T.);
#405=EDGE_CURVE('',#335,#334,#112,.T.);
#406=EDGE_CURVE('',#333,#335,#113,.T.);
#407=EDGE_CURVE('',#336,#337,#114,.T.);
#408=EDGE_CURVE('',#338,#336,#115,.T.);
#409=EDGE_CURVE('',#339,#338,#116,.T.);
#410=EDGE_CURVE('',#337,#339,#117,.T.);
#411=EDGE_CURVE('',#340,#341,#118,.T.);
#412=EDGE_CURVE('',#341,#338,#119,.T.);
#413=EDGE_CURVE('',#336,#342,#120,.T.);
#414=EDGE_CURVE('',#342,#343,#121,.T.);
#415=EDGE_CURVE('',#343,#333,#122,.T.);
#416=EDGE_CURVE('',#335,#330,#123,.T.);
#417=EDGE_CURVE('',#328,#344,#124,.T.);
#418=EDGE_CURVE('',#344,#345,#125,.T.);
#419=EDGE_CURVE('',#345,#340,#126,.T.);
#420=EDGE_CURVE('',#346,#340,#127,.T.);
#421=EDGE_CURVE('',#347,#346,#128,.T.);
#422=EDGE_CURVE('',#347,#341,#129,.T.);
#423=EDGE_CURVE('',#339,#347,#130,.T.);
#424=EDGE_CURVE('',#331,#334,#131,.T.);
#425=EDGE_CURVE('',#346,#348,#132,.T.);
#426=EDGE_CURVE('',#348,#349,#133,.T.);
#427=EDGE_CURVE('',#349,#329,#134,.T.);
#428=EDGE_CURVE('',#332,#350,#135,.T.);
#429=EDGE_CURVE('',#350,#351,#136,.T.);
#430=EDGE_CURVE('',#351,#337,#137,.T.);
#431=EDGE_CURVE('',#348,#345,#138,.T.);
#432=EDGE_CURVE('',#343,#350,#139,.T.);
#433=EDGE_CURVE('',#349,#344,#140,.T.);
#434=EDGE_CURVE('',#351,#342,#141,.T.);
#435=ORIENTED_EDGE('',*,*,#352,.T.);
#436=ORIENTED_EDGE('',*,*,#353,.F.);
#437=ORIENTED_EDGE('',*,*,#353,.T.);
#438=ORIENTED_EDGE('',*,*,#354,.T.);
#439=ORIENTED_EDGE('',*,*,#352,.F.);
#440=ORIENTED_EDGE('',*,*,#355,.T.);
#441=ORIENTED_EDGE('',*,*,#356,.F.);
#442=ORIENTED_EDGE('',*,*,#355,.F.);
#443=ORIENTED_EDGE('',*,*,#354,.F.);
#444=ORIENTED_EDGE('',*,*,#357,.F.);
#445=ORIENTED_EDGE('',*,*,#358,.T.);
#446=ORIENTED_EDGE('',*,*,#359,.F.);
#447=ORIENTED_EDGE('',*,*,#360,.F.);
#448=ORIENTED_EDGE('',*,*,#361,.F.);
#449=ORIENTED_EDGE('',*,*,#360,.T.);
#450=ORIENTED_EDGE('',*,*,#362,.F.);
#451=ORIENTED_EDGE('',*,*,#358,.F.);
#452=ORIENTED_EDGE('',*,*,#361,.T.);
#453=ORIENTED_EDGE('',*,*,#357,.T.);
#454=ORIENTED_EDGE('',*,*,#356,.T.);
#455=ORIENTED_EDGE('',*,*,#362,.T.);
#456=ORIENTED_EDGE('',*,*,#359,.T.);
#457=ORIENTED_EDGE('',*,*,#363,.F.);
#458=ORIENTED_EDGE('',*,*,#364,.F.);
#459=ORIENTED_EDGE('',*,*,#365,.F.);
#460=ORIENTED_EDGE('',*,*,#366,.F.);
#461=ORIENTED_EDGE('',*,*,#367,.F.);
#462=ORIENTED_EDGE('',*,*,#368,.F.);
#463=ORIENTED_EDGE('',*,*,#369,.F.);
#464=ORIENTED_EDGE('',*,*,#370,.F.);
#465=ORIENTED_EDGE('',*,*,#371,.F.);
#466=ORIENTED_EDGE('',*,*,#372,.F.);
#467=ORIENTED_EDGE('',*,*,#373,.F.);
#468=ORIENTED_EDGE('',*,*,#374,.F.);
#469=ORIENTED_EDGE('',*,*,#375,.T.);
#470=ORIENTED_EDGE('',*,*,#376,.T.);
#471=ORIENTED_EDGE('',*,*,#372,.T.);
#472=ORIENTED_EDGE('',*,*,#377,.T.);
#473=ORIENTED_EDGE('',*,*,#378,.T.);
#474=ORIENTED_EDGE('',*,*,#379,.T.);
#475=ORIENTED_EDGE('',*,*,#370,.T.);
#476=ORIENTED_EDGE('',*,*,#380,.T.);
#477=ORIENTED_EDGE('',*,*,#364,.T.);
#478=ORIENTED_EDGE('',*,*,#381,.T.);
#479=ORIENTED_EDGE('',*,*,#382,.T.);
#480=ORIENTED_EDGE('',*,*,#383,.T.);
#481=ORIENTED_EDGE('',*,*,#384,.F.);
#482=ORIENTED_EDGE('',*,*,#385,.F.);
#483=ORIENTED_EDGE('',*,*,#386,.T.);
#484=ORIENTED_EDGE('',*,*,#375,.F.);
#485=ORIENTED_EDGE('',*,*,#386,.F.);
#486=ORIENTED_EDGE('',*,*,#387,.F.);
#487=ORIENTED_EDGE('',*,*,#373,.T.);
#488=ORIENTED_EDGE('',*,*,#376,.F.);
#489=ORIENTED_EDGE('',*,*,#369,.T.);
#490=ORIENTED_EDGE('',*,*,#388,.F.);
#491=ORIENTED_EDGE('',*,*,#365,.T.);
#492=ORIENTED_EDGE('',*,*,#380,.F.);
#493=ORIENTED_EDGE('',*,*,#374,.T.);
#494=ORIENTED_EDGE('',*,*,#387,.T.);
#495=ORIENTED_EDGE('',*,*,#385,.T.);
#496=ORIENTED_EDGE('',*,*,#389,.T.);
#497=ORIENTED_EDGE('',*,*,#390,.T.);
#498=ORIENTED_EDGE('',*,*,#391,.T.);
#499=ORIENTED_EDGE('',*,*,#366,.T.);
#500=ORIENTED_EDGE('',*,*,#388,.T.);
#501=ORIENTED_EDGE('',*,*,#368,.T.);
#502=ORIENTED_EDGE('',*,*,#392,.T.);
#503=ORIENTED_EDGE('',*,*,#393,.T.);
#504=ORIENTED_EDGE('',*,*,#394,.T.);
#505=ORIENTED_EDGE('',*,*,#384,.T.);
#506=ORIENTED_EDGE('',*,*,#383,.F.);
#507=ORIENTED_EDGE('',*,*,#395,.F.);
#508=ORIENTED_EDGE('',*,*,#389,.F.);
#509=ORIENTED_EDGE('',*,*,#367,.T.);
#510=ORIENTED_EDGE('',*,*,#379,.F.);
#511=ORIENTED_EDGE('',*,*,#396,.T.);
#512=ORIENTED_EDGE('',*,*,#392,.F.);
#513=ORIENTED_EDGE('',*,*,#397,.F.);
#514=ORIENTED_EDGE('',*,*,#390,.F.);
#515=ORIENTED_EDGE('',*,*,#395,.T.);
#516=ORIENTED_EDGE('',*,*,#382,.F.);
#517=ORIENTED_EDGE('',*,*,#371,.T.);
#518=ORIENTED_EDGE('',*,*,#394,.F.);
#519=ORIENTED_EDGE('',*,*,#398,.T.);
#520=ORIENTED_EDGE('',*,*,#377,.F.);
#521=ORIENTED_EDGE('',*,*,#398,.F.);
#522=ORIENTED_EDGE('',*,*,#393,.F.);
#523=ORIENTED_EDGE('',*,*,#396,.F.);
#524=ORIENTED_EDGE('',*,*,#378,.F.);
#525=ORIENTED_EDGE('',*,*,#363,.T.);
#526=ORIENTED_EDGE('',*,*,#391,.F.);
#527=ORIENTED_EDGE('',*,*,#397,.T.);
#528=ORIENTED_EDGE('',*,*,#381,.F.);
#529=ORIENTED_EDGE('',*,*,#399,.F.);
#530=ORIENTED_EDGE('',*,*,#400,.F.);
#531=ORIENTED_EDGE('',*,*,#401,.F.);
#532=ORIENTED_EDGE('',*,*,#402,.F.);
#533=ORIENTED_EDGE('',*,*,#403,.F.);
#534=ORIENTED_EDGE('',*,*,#404,.F.);
#535=ORIENTED_EDGE('',*,*,#405,.F.);
#536=ORIENTED_EDGE('',*,*,#406,.F.);
#537=ORIENTED_EDGE('',*,*,#407,.F.);
#538=ORIENTED_EDGE('',*,*,#408,.F.);
#539=ORIENTED_EDGE('',*,*,#409,.F.);
#540=ORIENTED_EDGE('',*,*,#410,.F.);
#541=ORIENTED_EDGE('',*,*,#411,.T.);
#542=ORIENTED_EDGE('',*,*,#412,.T.);
#543=ORIENTED_EDGE('',*,*,#408,.T.);
#544=ORIENTED_EDGE('',*,*,#413,.T.);
#545=ORIENTED_EDGE('',*,*,#414,.T.);
#546=ORIENTED_EDGE('',*,*,#415,.T.);
#547=ORIENTED_EDGE('',*,*,#406,.T.);
#548=ORIENTED_EDGE('',*,*,#416,.T.);
#549=ORIENTED_EDGE('',*,*,#400,.T.);
#550=ORIENTED_EDGE('',*,*,#417,.T.);
#551=ORIENTED_EDGE('',*,*,#418,.T.);
#552=ORIENTED_EDGE('',*,*,#419,.T.);
#553=ORIENTED_EDGE('',*,*,#420,.F.);
#554=ORIENTED_EDGE('',*,*,#421,.F.);
#555=ORIENTED_EDGE('',*,*,#422,.T.);
#556=ORIENTED_EDGE('',*,*,#411,.F.);
#557=ORIENTED_EDGE('',*,*,#422,.F.);
#558=ORIENTED_EDGE('',*,*,#423,.F.);
#559=ORIENTED_EDGE('',*,*,#409,.T.);
#560=ORIENTED_EDGE('',*,*,#412,.F.);
#561=ORIENTED_EDGE('',*,*,#405,.T.);
#562=ORIENTED_EDGE('',*,*,#424,.F.);
#563=ORIENTED_EDGE('',*,*,#401,.T.);
#564=ORIENTED_EDGE('',*,*,#416,.F.);
#565=ORIENTED_EDGE('',*,*,#410,.T.);
#566=ORIENTED_EDGE('',*,*,#423,.T.);
#567=ORIENTED_EDGE('',*,*,#421,.T.);
#568=ORIENTED_EDGE('',*,*,#425,.T.);
#569=ORIENTED_EDGE('',*,*,#426,.T.);
#570=ORIENTED_EDGE('',*,*,#427,.T.);
#571=ORIENTED_EDGE('',*,*,#402,.T.);
#572=ORIENTED_EDGE('',*,*,#424,.T.);
#573=ORIENTED_EDGE('',*,*,#404,.T.);
#574=ORIENTED_EDGE('',*,*,#428,.T.);
#575=ORIENTED_EDGE('',*,*,#429,.T.);
#576=ORIENTED_EDGE('',*,*,#430,.T.);
#577=ORIENTED_EDGE('',*,*,#420,.T.);
#578=ORIENTED_EDGE('',*,*,#419,.F.);
#579=ORIENTED_EDGE('',*,*,#431,.F.);
#580=ORIENTED_EDGE('',*,*,#425,.F.);
#581=ORIENTED_EDGE('',*,*,#403,.T.);
#582=ORIENTED_EDGE('',*,*,#415,.F.);
#583=ORIENTED_EDGE('',*,*,#432,.T.);
#584=ORIENTED_EDGE('',*,*,#428,.F.);
#585=ORIENTED_EDGE('',*,*,#433,.F.);
#586=ORIENTED_EDGE('',*,*,#426,.F.);
#587=ORIENTED_EDGE('',*,*,#431,.T.);
#588=ORIENTED_EDGE('',*,*,#418,.F.);
#589=ORIENTED_EDGE('',*,*,#407,.T.);
#590=ORIENTED_EDGE('',*,*,#430,.F.);
#591=ORIENTED_EDGE('',*,*,#434,.T.);
#592=ORIENTED_EDGE('',*,*,#413,.F.);
#593=ORIENTED_EDGE('',*,*,#434,.F.);
#594=ORIENTED_EDGE('',*,*,#429,.F.);
#595=ORIENTED_EDGE('',*,*,#432,.F.);
#596=ORIENTED_EDGE('',*,*,#414,.F.);
#597=ORIENTED_EDGE('',*,*,#399,.T.);
#598=ORIENTED_EDGE('',*,*,#427,.F.);
#599=ORIENTED_EDGE('',*,*,#433,.T.);
#600=ORIENTED_EDGE('',*,*,#417,.F.);
#601=SPHERICAL_SURFACE('',#658,2.5);
#602=ADVANCED_FACE('',(#221),#601,.T.);
#603=ADVANCED_FACE('',(#222),#219,.T.);
#604=ADVANCED_FACE('',(#223),#220,.T.);
#605=ADVANCED_FACE('',(#224),#34,.T.);
#606=ADVANCED_FACE('',(#225,#33),#35,.T.);
#607=ADVANCED_FACE('',(#226),#36,.F.);
#608=ADVANCED_FACE('',(#227),#37,.T.);
#609=ADVANCED_FACE('',(#228),#38,.T.);
#610=ADVANCED_FACE('',(#229),#39,.T.);
#611=ADVANCED_FACE('',(#230),#40,.T.);
#612=ADVANCED_FACE('',(#231),#41,.T.);
#613=ADVANCED_FACE('',(#232),#42,.T.);
#614=ADVANCED_FACE('',(#233),#43,.T.);
#615=ADVANCED_FACE('',(#234),#44,.T.);
#616=ADVANCED_FACE('',(#235),#45,.T.);
#617=ADVANCED_FACE('',(#236),#46,.T.);
#618=ADVANCED_FACE('',(#237),#47,.T.);
#619=ADVANCED_FACE('',(#238),#48,.T.);
#620=ADVANCED_FACE('',(#239),#49,.T.);
#621=ADVANCED_FACE('',(#240),#50,.T.);
#622=ADVANCED_FACE('',(#241),#51,.T.);
#623=ADVANCED_FACE('',(#242),#52,.T.);
#624=ADVANCED_FACE('',(#243),#53,.T.);
#625=ADVANCED_FACE('',(#244),#54,.T.);
#626=ADVANCED_FACE('',(#245),#55,.T.);
#627=ADVANCED_FACE('',(#246),#56,.T.);
#628=ADVANCED_FACE('',(#247),#57,.T.);
#629=ADVANCED_FACE('',(#248),#58,.T.);
#630=ADVANCED_FACE('',(#249),#59,.T.);
#631=ADVANCED_FACE('',(#250),#60,.T.);
#632=ADVANCED_FACE('',(#251),#61,.T.);
#633=ADVANCED_FACE('',(#252),#62,.T.);
#634=ADVANCED_FACE('',(#253),#63,.T.);
#635=ADVANCED_FACE('',(#254),#64,.T.);
#636=CLOSED_SHELL('',(#602,#603,#604,#605,#606,#607));
#637=CLOSED_SHELL('',(#608,#609,#610,#611,#612,#613,#614,#615,#616,#617,
#618,#619,#620,#621));
#638=CLOSED_SHELL('',(#622,#623,#624,#625,#626,#627,#628,#629,#630,#631,
#632,#633,#634,#635));
#639=DERIVED_UNIT_ELEMENT(#641,1.);
#640=DERIVED_UNIT_ELEMENT(#1036,3.);
#641=(
MASS_UNIT()
NAMED_UNIT(*)
SI_UNIT($,.GRAM.)
);
#642=DERIVED_UNIT((#639,#640));
#643=MEASURE_REPRESENTATION_ITEM('density measure',
POSITIVE_RATIO_MEASURE(1.2),#642);
#644=PROPERTY_DEFINITION_REPRESENTATION(#649,#646);
#645=PROPERTY_DEFINITION_REPRESENTATION(#650,#647);
#646=REPRESENTATION('material name',(#648),#1033);
#647=REPRESENTATION('density',(#643),#1033);
#648=DESCRIPTIVE_REPRESENTATION_ITEM('Polycarbonate, Clear',
'Polycarbonate, Clear');
#649=PROPERTY_DEFINITION('material property','material name',#1043);
#650=PROPERTY_DEFINITION('material property','density of part',#1043);
#651=DATE_TIME_ROLE('creation_date');
#652=APPLIED_DATE_AND_TIME_ASSIGNMENT(#653,#651,(#1043));
#653=DATE_AND_TIME(#654,#655);
#654=CALENDAR_DATE(2018,24,9);
#655=LOCAL_TIME(19,8,55.,#656);
#656=COORDINATED_UNIVERSAL_TIME_OFFSET(0,0,.BEHIND.);
#657=AXIS2_PLACEMENT_3D('placement',#857,#698,#699);
#658=AXIS2_PLACEMENT_3D('',#858,#700,#701);
#659=AXIS2_PLACEMENT_3D('',#861,#702,#703);
#660=AXIS2_PLACEMENT_3D('',#863,#704,#705);
#661=AXIS2_PLACEMENT_3D('',#864,#706,#707);
#662=AXIS2_PLACEMENT_3D('',#865,#708,#709);
#663=AXIS2_PLACEMENT_3D('',#868,#711,#712);
#664=AXIS2_PLACEMENT_3D('',#869,#713,#714);
#665=AXIS2_PLACEMENT_3D('',#872,#715,#716);
#666=AXIS2_PLACEMENT_3D('',#876,#718,#719);
#667=AXIS2_PLACEMENT_3D('',#878,#721,#722);
#668=AXIS2_PLACEMENT_3D('',#881,#725,#726);
#669=AXIS2_PLACEMENT_3D('',#882,#727,#728);
#670=AXIS2_PLACEMENT_3D('',#883,#729,#730);
#671=AXIS2_PLACEMENT_3D('',#892,#735,#736);
#672=AXIS2_PLACEMENT_3D('',#901,#741,#742);
#673=AXIS2_PLACEMENT_3D('',#910,#747,#748);
#674=AXIS2_PLACEMENT_3D('',#926,#758,#759);
#675=AXIS2_PLACEMENT_3D('',#932,#763,#764);
#676=AXIS2_PLACEMENT_3D('',#934,#766,#767);
#677=AXIS2_PLACEMENT_3D('',#936,#769,#770);
#678=AXIS2_PLACEMENT_3D('',#947,#777,#778);
#679=AXIS2_PLACEMENT_3D('',#949,#780,#781);
#680=AXIS2_PLACEMENT_3D('',#951,#783,#784);
#681=AXIS2_PLACEMENT_3D('',#953,#786,#787);
#682=AXIS2_PLACEMENT_3D('',#955,#789,#790);
#683=AXIS2_PLACEMENT_3D('',#956,#791,#792);
#684=AXIS2_PLACEMENT_3D('',#957,#793,#794);
#685=AXIS2_PLACEMENT_3D('',#966,#799,#800);
#686=AXIS2_PLACEMENT_3D('',#975,#805,#806);
#687=AXIS2_PLACEMENT_3D('',#984,#811,#812);
#688=AXIS2_PLACEMENT_3D('',#1000,#822,#823);
#689=AXIS2_PLACEMENT_3D('',#1006,#827,#828);
#690=AXIS2_PLACEMENT_3D('',#1008,#830,#831);
#691=AXIS2_PLACEMENT_3D('',#1010,#833,#834);
#692=AXIS2_PLACEMENT_3D('',#1021,#841,#842);
#693=AXIS2_PLACEMENT_3D('',#1023,#844,#845);
#694=AXIS2_PLACEMENT_3D('',#1025,#847,#848);
#695=AXIS2_PLACEMENT_3D('',#1027,#850,#851);
#696=AXIS2_PLACEMENT_3D('',#1029,#853,#854);
#697=AXIS2_PLACEMENT_3D('',#1030,#855,#856);
#698=DIRECTION('axis',(0.,0.,1.));
#699=DIRECTION('refdir',(1.,0.,0.));
#700=DIRECTION('center_axis',(6.12323399573677E-17,0.,1.));
#701=DIRECTION('ref_axis',(1.,0.,0.));
#702=DIRECTION('center_axis',(0.,0.,1.));
#703=DIRECTION('ref_axis',(-1.,0.,0.));
#704=DIRECTION('center_axis',(1.22464679914735E-16,-1.,0.));
#705=DIRECTION('ref_axis',(-1.,-1.22464679914735E-16,0.));
#706=DIRECTION('center_axis',(0.,0.,1.));
#707=DIRECTION('ref_axis',(-1.,0.,0.));
#708=DIRECTION('center_axis',(0.,0.,1.));
#709=DIRECTION('ref_axis',(-1.,0.,0.));
#710=DIRECTION('',(0.,0.,-1.));
#711=DIRECTION('center_axis',(0.,0.,-1.));
#712=DIRECTION('ref_axis',(-1.,0.,0.));
#713=DIRECTION('center_axis',(0.,0.,-1.));
#714=DIRECTION('ref_axis',(-1.83697019872103E-16,1.,0.));
#715=DIRECTION('center_axis',(0.,0.,1.));
#716=DIRECTION('ref_axis',(1.,0.,0.));
#717=DIRECTION('',(0.,0.,-1.));
#718=DIRECTION('center_axis',(0.,0.,-1.));
#719=DIRECTION('ref_axis',(1.,0.,0.));
#720=DIRECTION('',(0.,0.,-1.));
#721=DIRECTION('center_axis',(0.,-1.,0.));
#722=DIRECTION('ref_axis',(-1.,0.,0.));
#723=DIRECTION('',(1.,0.,0.));
#724=DIRECTION('',(-1.,0.,0.));
#725=DIRECTION('center_axis',(0.,0.,1.));
#726=DIRECTION('ref_axis',(1.,0.,0.));
#727=DIRECTION('center_axis',(0.,0.,1.));
#728=DIRECTION('ref_axis',(1.,0.,0.));
#729=DIRECTION('center_axis',(0.,1.,0.));
#730=DIRECTION('ref_axis',(0.,0.,1.));
#731=DIRECTION('',(1.,0.,0.));
#732=DIRECTION('',(0.,0.,-1.));
#733=DIRECTION('',(-1.,0.,0.));
#734=DIRECTION('',(0.,0.,1.));
#735=DIRECTION('center_axis',(0.,-1.,0.));
#736=DIRECTION('ref_axis',(0.,0.,-1.));
#737=DIRECTION('',(-1.,0.,0.));
#738=DIRECTION('',(0.,0.,-1.));
#739=DIRECTION('',(1.,0.,0.));
#740=DIRECTION('',(0.,0.,1.));
#741=DIRECTION('center_axis',(0.,-1.,0.));
#742=DIRECTION('ref_axis',(0.,0.,-1.));
#743=DIRECTION('',(1.,0.,0.));
#744=DIRECTION('',(0.,0.,1.));
#745=DIRECTION('',(-1.,0.,0.));
#746=DIRECTION('',(0.,0.,-1.));
#747=DIRECTION('center_axis',(-1.,0.,0.));
#748=DIRECTION('ref_axis',(0.,0.,1.));
#749=DIRECTION('',(0.,0.,-1.));
#750=DIRECTION('',(0.,-1.,0.));
#751=DIRECTION('',(0.,-1.,6.93889390390723E-16));
#752=DIRECTION('',(0.,-1.38777878078145E-16,1.));
#753=DIRECTION('',(0.,1.,0.));
#754=DIRECTION('',(0.,1.,0.));
#755=DIRECTION('',(0.,1.,0.));
#756=DIRECTION('',(0.,6.93889390390723E-17,-1.));
#757=DIRECTION('',(0.,-1.,6.93889390390723E-16));
#758=DIRECTION('center_axis',(0.,1.,0.));
#759=DIRECTION('ref_axis',(0.,0.,1.));
#760=DIRECTION('',(-1.,0.,0.));
#761=DIRECTION('',(0.,0.,1.));
#762=DIRECTION('',(-1.,0.,0.));
#763=DIRECTION('center_axis',(0.,0.,-1.));
#764=DIRECTION('ref_axis',(0.,1.,0.));
#765=DIRECTION('',(0.,1.,0.));
#766=DIRECTION('center_axis',(0.,0.,1.));
#767=DIRECTION('ref_axis',(0.,-1.,0.));
#768=DIRECTION('',(0.,-1.,0.));
#769=DIRECTION('center_axis',(1.,0.,0.));
#770=DIRECTION('ref_axis',(0.,0.,-1.));
#771=DIRECTION('',(0.,1.,-6.93889390390723E-16));
#772=DIRECTION('',(0.,-6.93889390390723E-17,1.));
#773=DIRECTION('',(0.,-1.,0.));
#774=DIRECTION('',(0.,-1.,0.));
#775=DIRECTION('',(0.,1.38777878078145E-16,-1.));
#776=DIRECTION('',(0.,1.,-6.93889390390723E-16));
#777=DIRECTION('center_axis',(0.,-6.93889390390723E-16,-1.));
#778=DIRECTION('ref_axis',(0.,1.,-6.93889390390723E-16));
#779=DIRECTION('',(-1.,0.,0.));
#780=DIRECTION('center_axis',(0.,0.,1.));
#781=DIRECTION('ref_axis',(0.,-1.,0.));
#782=DIRECTION('',(1.,0.,0.));
#783=DIRECTION('center_axis',(0.,1.,6.93889390390723E-17));
#784=DIRECTION('ref_axis',(0.,-6.93889390390723E-17,1.));
#785=DIRECTION('',(-1.,0.,0.));
#786=DIRECTION('center_axis',(0.,-6.93889390390723E-16,-1.));
#787=DIRECTION('ref_axis',(0.,1.,-6.93889390390723E-16));
#788=DIRECTION('',(-1.,0.,0.));
#789=DIRECTION('center_axis',(0.,-1.,-1.38777878078145E-16));
#790=DIRECTION('ref_axis',(0.,1.38777878078145E-16,-1.));
#791=DIRECTION('center_axis',(0.,0.,1.));
#792=DIRECTION('ref_axis',(0.,-1.,0.));
#793=DIRECTION('center_axis',(0.,1.,0.));
#794=DIRECTION('ref_axis',(0.,0.,1.));
#795=DIRECTION('',(1.,0.,0.));
#796=DIRECTION('',(0.,0.,-1.));
#797=DIRECTION('',(-1.,0.,0.));
#798=DIRECTION('',(0.,0.,1.));
#799=DIRECTION('center_axis',(0.,-1.,0.));
#800=DIRECTION('ref_axis',(0.,0.,-1.));
#801=DIRECTION('',(-1.,0.,0.));
#802=DIRECTION('',(0.,0.,-1.));
#803=DIRECTION('',(1.,0.,0.));
#804=DIRECTION('',(0.,0.,1.));
#805=DIRECTION('center_axis',(0.,-1.,0.));
#806=DIRECTION('ref_axis',(0.,0.,-1.));
#807=DIRECTION('',(1.,0.,0.));
#808=DIRECTION('',(0.,0.,1.));
#809=DIRECTION('',(-1.,0.,0.));
#810=DIRECTION('',(0.,0.,-1.));
#811=DIRECTION('center_axis',(-1.,0.,0.));
#812=DIRECTION('ref_axis',(0.,0.,1.));
#813=DIRECTION('',(0.,0.,-1.));
#814=DIRECTION('',(0.,-1.,0.));
#815=DIRECTION('',(0.,-1.,0.));
#816=DIRECTION('',(0.,-2.77555756156289E-16,1.));
#817=DIRECTION('',(0.,1.,0.));
#818=DIRECTION('',(0.,1.,0.));
#819=DIRECTION('',(0.,1.,0.));
#820=DIRECTION('',(0.,0.,-1.));
#821=DIRECTION('',(0.,-1.,0.));
#822=DIRECTION('center_axis',(0.,1.,0.));
#823=DIRECTION('ref_axis',(0.,0.,1.));
#824=DIRECTION('',(-1.,0.,0.));
#825=DIRECTION('',(0.,0.,1.));
#826=DIRECTION('',(-1.,0.,0.));
#827=DIRECTION('center_axis',(0.,0.,-1.));
#828=DIRECTION('ref_axis',(0.,1.,0.));
#829=DIRECTION('',(0.,1.,0.));
#830=DIRECTION('center_axis',(0.,0.,1.));
#831=DIRECTION('ref_axis',(0.,-1.,0.));
#832=DIRECTION('',(0.,-1.,0.));
#833=DIRECTION('center_axis',(1.,0.,0.));
#834=DIRECTION('ref_axis',(0.,0.,-1.));
#835=DIRECTION('',(0.,1.,0.));
#836=DIRECTION('',(0.,0.,1.));
#837=DIRECTION('',(0.,-1.,0.));
#838=DIRECTION('',(0.,-1.,0.));
#839=DIRECTION('',(0.,2.77555756156289E-16,-1.));
#840=DIRECTION('',(0.,1.,0.));
#841=DIRECTION('center_axis',(0.,0.,-1.));
#842=DIRECTION('ref_axis',(0.,1.,0.));
#843=DIRECTION('',(-1.,0.,0.));
#844=DIRECTION('center_axis',(0.,0.,1.));
#845=DIRECTION('ref_axis',(0.,-1.,0.));
#846=DIRECTION('',(1.,0.,0.));
#847=DIRECTION('center_axis',(0.,1.,0.));
#848=DIRECTION('ref_axis',(0.,0.,1.));
#849=DIRECTION('',(-1.,0.,0.));
#850=DIRECTION('center_axis',(0.,0.,-1.));
#851=DIRECTION('ref_axis',(0.,1.,0.));
#852=DIRECTION('',(-1.,0.,0.));
#853=DIRECTION('center_axis',(0.,-1.,-2.77555756156289E-16));
#854=DIRECTION('ref_axis',(0.,2.77555756156289E-16,-1.));
#855=DIRECTION('center_axis',(0.,0.,1.));
#856=DIRECTION('ref_axis',(0.,-1.,0.));
#857=CARTESIAN_POINT('',(0.,0.,0.));
#858=CARTESIAN_POINT('Origin',(0.,0.,5.1));
#859=CARTESIAN_POINT('',(2.5,3.06161699786838E-16,5.1));
#860=CARTESIAN_POINT('',(-2.5,-3.06161699786838E-16,5.1));
#861=CARTESIAN_POINT('Origin',(0.,0.,5.1));
#862=CARTESIAN_POINT('',(-1.53080849893419E-16,-1.87469972832732E-32,7.6));
#863=CARTESIAN_POINT('Origin',(0.,0.,5.1));
#864=CARTESIAN_POINT('Origin',(0.,0.,5.1));
#865=CARTESIAN_POINT('Origin',(0.,0.,0.));
#866=CARTESIAN_POINT('',(2.5,3.06161699786838E-16,0.));
#867=CARTESIAN_POINT('',(2.5,3.06161699786838E-16,0.));
#868=CARTESIAN_POINT('Origin',(0.,0.,0.));
#869=CARTESIAN_POINT('Origin',(0.,0.,0.));
#870=CARTESIAN_POINT('',(1.48323969741913,-2.55,0.));
#871=CARTESIAN_POINT('',(-1.48323969741913,-2.55,0.));
#872=CARTESIAN_POINT('Origin',(0.,0.,0.));
#873=CARTESIAN_POINT('',(1.48323969741913,-2.55,-1.));
#874=CARTESIAN_POINT('',(1.48323969741913,-2.55,0.));
#875=CARTESIAN_POINT('',(-1.48323969741913,-2.55,-1.));
#876=CARTESIAN_POINT('Origin',(0.,0.,-1.));
#877=CARTESIAN_POINT('',(-1.48323969741913,-2.55,0.));
#878=CARTESIAN_POINT('Origin',(1.48323969741913,-2.55,0.));
#879=CARTESIAN_POINT('',(-1.48323969741913,-2.55,0.));
#880=CARTESIAN_POINT('',(-1.48323969741913,-2.55,-1.));
#881=CARTESIAN_POINT('Origin',(-4.93982680858202E-16,-0.0688723770746095,
0.));
#882=CARTESIAN_POINT('Origin',(-4.93982680858202E-16,-0.0688723770746095,
-1.));
#883=CARTESIAN_POINT('Origin',(0.,-1.02,-25.));
#884=CARTESIAN_POINT('',(-0.25,-1.02,-4.8));
#885=CARTESIAN_POINT('',(0.25,-1.02,-4.8));
#886=CARTESIAN_POINT('',(0.,-1.02,-4.8));
#887=CARTESIAN_POINT('',(-0.25,-1.02,-1.));
#888=CARTESIAN_POINT('',(-0.25,-1.02,-1.));
#889=CARTESIAN_POINT('',(0.25,-1.02,-1.));
#890=CARTESIAN_POINT('',(0.,-1.02,-1.));
#891=CARTESIAN_POINT('',(0.25,-1.02,-1.));
#892=CARTESIAN_POINT('Origin',(0.,-1.52,-1.));
#893=CARTESIAN_POINT('',(0.25,-1.52,-4.8));
#894=CARTESIAN_POINT('',(-0.25,-1.52,-4.8));
#895=CARTESIAN_POINT('',(0.,-1.52,-4.8));
#896=CARTESIAN_POINT('',(0.25,-1.52,-1.));
#897=CARTESIAN_POINT('',(0.25,-1.52,-25.));
#898=CARTESIAN_POINT('',(-0.25,-1.52,-1.));
#899=CARTESIAN_POINT('',(0.,-1.52,-1.));
#900=CARTESIAN_POINT('',(-0.25,-1.52,-25.));
#901=CARTESIAN_POINT('Origin',(0.,-1.52,-1.));
#902=CARTESIAN_POINT('',(-0.25,-1.52,-5.8));
#903=CARTESIAN_POINT('',(0.25,-1.52,-5.8));
#904=CARTESIAN_POINT('',(0.,-1.52,-5.8));
#905=CARTESIAN_POINT('',(-0.25,-1.52,-25.));
#906=CARTESIAN_POINT('',(-0.25,-1.52,-25.));
#907=CARTESIAN_POINT('',(0.25,-1.52,-25.));
#908=CARTESIAN_POINT('',(0.,-1.52,-25.));
#909=CARTESIAN_POINT('',(0.25,-1.52,-25.));
#910=CARTESIAN_POINT('Origin',(-0.25,-1.27,-13.));
#911=CARTESIAN_POINT('',(-0.25,-1.02,-5.8));
#912=CARTESIAN_POINT('',(-0.25,-1.02,-25.));
#913=CARTESIAN_POINT('',(-0.25,-1.02,-1.));
#914=CARTESIAN_POINT('',(-0.25,-1.02,-25.));
#915=CARTESIAN_POINT('',(-0.25,-1.67,-5.8));
#916=CARTESIAN_POINT('',(-0.25,-0.87,-5.8));
#917=CARTESIAN_POINT('',(-0.25,-1.67,-4.8));
#918=CARTESIAN_POINT('',(-0.25,-1.67,-5.8));
#919=CARTESIAN_POINT('',(-0.25,-1.67,-4.8));
#920=CARTESIAN_POINT('',(-0.25,-1.52,-1.));
#921=CARTESIAN_POINT('',(-0.25,-0.87,-4.8));
#922=CARTESIAN_POINT('',(-0.25,-1.67,-4.8));
#923=CARTESIAN_POINT('',(-0.25,-0.87,-5.8));
#924=CARTESIAN_POINT('',(-0.25,-0.87,-4.8));
#925=CARTESIAN_POINT('',(-0.25,-0.87,-5.8));
#926=CARTESIAN_POINT('Origin',(0.,-1.02,-25.));
#927=CARTESIAN_POINT('',(0.25,-1.02,-5.8));
#928=CARTESIAN_POINT('',(0.,-1.02,-5.8));
#929=CARTESIAN_POINT('',(0.25,-1.02,-25.));
#930=CARTESIAN_POINT('',(0.25,-1.02,-1.));
#931=CARTESIAN_POINT('',(0.,-1.02,-25.));
#932=CARTESIAN_POINT('Origin',(0.,-1.52,-25.));
#933=CARTESIAN_POINT('',(0.25,-1.02,-25.));
#934=CARTESIAN_POINT('Origin',(0.,-1.02,-1.));
#935=CARTESIAN_POINT('',(0.25,-1.52,-1.));
#936=CARTESIAN_POINT('Origin',(0.25,-1.27,-13.));
#937=CARTESIAN_POINT('',(0.25,-0.87,-5.8));
#938=CARTESIAN_POINT('',(0.25,-0.87,-5.8));
#939=CARTESIAN_POINT('',(0.25,-0.87,-4.8));
#940=CARTESIAN_POINT('',(0.25,-0.87,-4.8));
#941=CARTESIAN_POINT('',(0.25,-1.67,-4.8));
#942=CARTESIAN_POINT('',(0.25,-1.67,-4.8));
#943=CARTESIAN_POINT('',(0.25,-1.67,-4.8));
#944=CARTESIAN_POINT('',(0.25,-1.67,-5.8));
#945=CARTESIAN_POINT('',(0.25,-1.67,-5.8));
#946=CARTESIAN_POINT('',(0.25,-0.87,-5.8));
#947=CARTESIAN_POINT('Origin',(0.,-1.67,-5.8));
#948=CARTESIAN_POINT('',(0.,-0.87,-5.8));
#949=CARTESIAN_POINT('Origin',(0.,-0.87,-4.8));
#950=CARTESIAN_POINT('',(0.,-1.67,-4.8));
#951=CARTESIAN_POINT('Origin',(0.,-0.87,-5.8));
#952=CARTESIAN_POINT('',(0.,-0.87,-4.8));
#953=CARTESIAN_POINT('Origin',(0.,-1.67,-5.8));
#954=CARTESIAN_POINT('',(0.,-1.67,-5.8));
#955=CARTESIAN_POINT('Origin',(0.,-1.67,-4.8));
#956=CARTESIAN_POINT('Origin',(0.,-0.87,-4.8));
#957=CARTESIAN_POINT('Origin',(0.,1.52,-26.));
#958=CARTESIAN_POINT('',(-0.25,1.52,-4.8));
#959=CARTESIAN_POINT('',(0.25,1.52,-4.8));
#960=CARTESIAN_POINT('',(0.,1.52,-4.8));
#961=CARTESIAN_POINT('',(-0.25,1.52,-1.));
#962=CARTESIAN_POINT('',(-0.25,1.52,-1.));
#963=CARTESIAN_POINT('',(0.25,1.52,-1.));
#964=CARTESIAN_POINT('',(0.,1.52,-1.));
#965=CARTESIAN_POINT('',(0.25,1.52,-1.));
#966=CARTESIAN_POINT('Origin',(0.,1.02,-1.));
#967=CARTESIAN_POINT('',(0.25,1.02,-4.8));
#968=CARTESIAN_POINT('',(-0.25,1.02,-4.8));
#969=CARTESIAN_POINT('',(0.,1.02,-4.8));
#970=CARTESIAN_POINT('',(0.25,1.02,-1.));
#971=CARTESIAN_POINT('',(0.25,1.02,-26.));
#972=CARTESIAN_POINT('',(-0.25,1.02,-1.));
#973=CARTESIAN_POINT('',(0.,1.02,-1.));
#974=CARTESIAN_POINT('',(-0.25,1.02,-26.));
#975=CARTESIAN_POINT('Origin',(0.,1.02,-1.));
#976=CARTESIAN_POINT('',(-0.25,1.02,-5.8));
#977=CARTESIAN_POINT('',(0.25,1.02,-5.8));
#978=CARTESIAN_POINT('',(0.,1.02,-5.8));
#979=CARTESIAN_POINT('',(-0.25,1.02,-26.));
#980=CARTESIAN_POINT('',(-0.25,1.02,-26.));
#981=CARTESIAN_POINT('',(0.25,1.02,-26.));
#982=CARTESIAN_POINT('',(0.,1.02,-26.));
#983=CARTESIAN_POINT('',(0.25,1.02,-26.));
#984=CARTESIAN_POINT('Origin',(-0.25,1.27,-13.5));
#985=CARTESIAN_POINT('',(-0.25,1.52,-5.8));
#986=CARTESIAN_POINT('',(-0.25,1.52,-26.));
#987=CARTESIAN_POINT('',(-0.25,1.52,-1.));
#988=CARTESIAN_POINT('',(-0.25,1.52,-26.));
#989=CARTESIAN_POINT('',(-0.25,0.870000000000002,-5.8));
#990=CARTESIAN_POINT('',(-0.25,1.67,-5.8));
#991=CARTESIAN_POINT('',(-0.25,0.870000000000002,-4.8));
#992=CARTESIAN_POINT('',(-0.25,0.870000000000002,-5.8));
#993=CARTESIAN_POINT('',(-0.25,0.870000000000002,-4.8));
#994=CARTESIAN_POINT('',(-0.25,1.02,-1.));
#995=CARTESIAN_POINT('',(-0.25,1.67,-4.8));
#996=CARTESIAN_POINT('',(-0.25,0.870000000000002,-4.8));
#997=CARTESIAN_POINT('',(-0.25,1.67,-5.8));
#998=CARTESIAN_POINT('',(-0.25,1.67,-4.8));
#999=CARTESIAN_POINT('',(-0.25,1.67,-5.8));
#1000=CARTESIAN_POINT('Origin',(0.,1.52,-26.));
#1001=CARTESIAN_POINT('',(0.25,1.52,-5.8));
#1002=CARTESIAN_POINT('',(0.,1.52,-5.8));
#1003=CARTESIAN_POINT('',(0.25,1.52,-26.));
#1004=CARTESIAN_POINT('',(0.25,1.52,-1.));
#1005=CARTESIAN_POINT('',(0.,1.52,-26.));
#1006=CARTESIAN_POINT('Origin',(0.,1.02,-26.));
#1007=CARTESIAN_POINT('',(0.25,1.52,-26.));
#1008=CARTESIAN_POINT('Origin',(0.,1.52,-1.));
#1009=CARTESIAN_POINT('',(0.25,1.02,-1.));
#1010=CARTESIAN_POINT('Origin',(0.25,1.27,-13.5));
#1011=CARTESIAN_POINT('',(0.25,1.67,-5.8));
#1012=CARTESIAN_POINT('',(0.25,1.67,-5.8));
#1013=CARTESIAN_POINT('',(0.25,1.67,-4.8));
#1014=CARTESIAN_POINT('',(0.25,1.67,-4.8));
#1015=CARTESIAN_POINT('',(0.25,0.870000000000002,-4.8));
#1016=CARTESIAN_POINT('',(0.25,0.870000000000002,-4.8));
#1017=CARTESIAN_POINT('',(0.25,0.870000000000002,-4.8));
#1018=CARTESIAN_POINT('',(0.25,0.870000000000002,-5.8));
#1019=CARTESIAN_POINT('',(0.25,0.870000000000002,-5.8));
#1020=CARTESIAN_POINT('',(0.25,1.67,-5.8));
#1021=CARTESIAN_POINT('Origin',(0.,0.870000000000002,-5.8));
#1022=CARTESIAN_POINT('',(0.,1.67,-5.8));
#1023=CARTESIAN_POINT('Origin',(0.,1.67,-4.8));
#1024=CARTESIAN_POINT('',(0.,0.870000000000002,-4.8));
#1025=CARTESIAN_POINT('Origin',(0.,1.67,-5.8));
#1026=CARTESIAN_POINT('',(0.,1.67,-4.8));
#1027=CARTESIAN_POINT('Origin',(0.,0.870000000000002,-5.8));
#1028=CARTESIAN_POINT('',(0.,0.870000000000002,-5.8));
#1029=CARTESIAN_POINT('Origin',(0.,0.870000000000002,-4.8));
#1030=CARTESIAN_POINT('Origin',(0.,1.67,-4.8));
#1031=UNCERTAINTY_MEASURE_WITH_UNIT(LENGTH_MEASURE(0.01),#1035,
'DISTANCE_ACCURACY_VALUE',
'Maximum model space distance between geometric entities at asserted c
onnectivities');
#1032=UNCERTAINTY_MEASURE_WITH_UNIT(LENGTH_MEASURE(0.01),#1035,
'DISTANCE_ACCURACY_VALUE',
'Maximum model space distance between geometric entities at asserted c
onnectivities');
#1033=(
GEOMETRIC_REPRESENTATION_CONTEXT(3)
GLOBAL_UNCERTAINTY_ASSIGNED_CONTEXT((#1031))
GLOBAL_UNIT_ASSIGNED_CONTEXT((#1035,#1038,#1037))
REPRESENTATION_CONTEXT('','3D')
);
#1034=(
GEOMETRIC_REPRESENTATION_CONTEXT(3)
GLOBAL_UNCERTAINTY_ASSIGNED_CONTEXT((#1032))
GLOBAL_UNIT_ASSIGNED_CONTEXT((#1035,#1038,#1037))
REPRESENTATION_CONTEXT('','3D')
);
#1035=(
LENGTH_UNIT()
NAMED_UNIT(*)
SI_UNIT(.MILLI.,.METRE.)
);
#1036=(
LENGTH_UNIT()
NAMED_UNIT(*)
SI_UNIT(.CENTI.,.METRE.)
);
#1037=(
NAMED_UNIT(*)
SI_UNIT($,.STERADIAN.)
SOLID_ANGLE_UNIT()
);
#1038=(
NAMED_UNIT(*)
PLANE_ANGLE_UNIT()
SI_UNIT($,.RADIAN.)
);
#1039=SHAPE_DEFINITION_REPRESENTATION(#1040,#1041);
#1040=PRODUCT_DEFINITION_SHAPE('',$,#1043);
#1041=SHAPE_REPRESENTATION('',(#657),#1033);
#1042=PRODUCT_DEFINITION_CONTEXT('part definition',#1047,'design');
#1043=PRODUCT_DEFINITION('LED5mm','LED5mm',#1044,#1042);
#1044=PRODUCT_DEFINITION_FORMATION('',$,#1049);
#1045=PRODUCT_RELATED_PRODUCT_CATEGORY('LED5mm','LED5mm',(#1049));
#1046=APPLICATION_PROTOCOL_DEFINITION('international standard',
'automotive_design',2009,#1047);
#1047=APPLICATION_CONTEXT(
'Core Data for Automotive Mechanical Design Process');
#1048=PRODUCT_CONTEXT('part definition',#1047,'mechanical');
#1049=PRODUCT('LED5mm','LED5mm',$,(#1048));
#1050=PRESENTATION_STYLE_ASSIGNMENT((#1053));
#1051=PRESENTATION_STYLE_ASSIGNMENT((#1054));
#1052=PRESENTATION_STYLE_ASSIGNMENT((#1055));
#1053=SURFACE_STYLE_USAGE(.BOTH.,#1056);
#1054=SURFACE_STYLE_USAGE(.BOTH.,#1057);
#1055=SURFACE_STYLE_USAGE(.BOTH.,#1058);
#1056=SURFACE_SIDE_STYLE('',(#1059));
#1057=SURFACE_SIDE_STYLE('',(#1060));
#1058=SURFACE_SIDE_STYLE('',(#1061));
#1059=SURFACE_STYLE_FILL_AREA(#1062);
#1060=SURFACE_STYLE_FILL_AREA(#1063);
#1061=SURFACE_STYLE_FILL_AREA(#1064);
#1062=FILL_AREA_STYLE('',(#1065));
#1063=FILL_AREA_STYLE('',(#1066));
#1064=FILL_AREA_STYLE('',(#1067));
#1065=FILL_AREA_STYLE_COLOUR('',#1068);
#1066=FILL_AREA_STYLE_COLOUR('',#1069);
#1067=FILL_AREA_STYLE_COLOUR('',#1070);
#1068=COLOUR_RGB('',0.8,0.8,0.8);
#1069=COLOUR_RGB('',0.,0.501960784313725,1.);
#1070=COLOUR_RGB('',0.956862745098039,0.956862745098039,0.956862745098039);
ENDSEC;
END-ISO-10303-21;
